<?xml version="1.0" encoding="iso-8859-1"?>
<!-- Generator: Adobe Illustrator 18.0.0, SVG Export Plug-In . SVG Version: 6.00 Build 0)  -->
<!DOCTYPE svg PUBLIC "-//W3C//DTD SVG 1.1//EN" "http://www.w3.org/Graphics/SVG/1.1/DTD/svg11.dtd">
<svg version="1.1" id="Capa_1" xmlns="http://www.w3.org/2000/svg" xmlns:xlink="http://www.w3.org/1999/xlink" x="0px" y="0px"
	 viewBox="0 0 297 297" style="enable-background:new 0 0 297 297;" xml:space="preserve">
<g>
	<path d="M269.287,112.421c-15.281,0-27.713,12.432-27.713,27.713c0,4.327,0.998,8.424,2.774,12.076
		c-10.201,10.029-22.389,18.348-35.909,24.589c14.964-18.865,27.499-45.011,36.448-76.95c0.29,0.009,0.579,0.022,0.87,0.022
		c14.704,0,26.667-11.963,26.667-26.667s-11.963-26.667-26.667-26.667c-14.704,0-26.667,11.963-26.667,26.667
		c0,6.702,2.491,12.829,6.588,17.519c-7.522,28.002-18.058,51.755-30.843,69.272c-5.03,6.892-11.647,14.45-19.591,20.234
		c2.497-7.309,4.849-16.015,7.112-26.238c5.658-25.558,10.345-59.388,13.745-98.93c13.166-2.141,23.25-13.587,23.25-27.349
		C219.351,12.432,206.919,0,191.638,0s-27.713,12.432-27.713,27.713c0,9.27,4.58,17.486,11.591,22.519
		c-3.023,36.097-7.131,67.555-12.046,91.962c-6.346,31.515-12.235,42.574-14.97,46.258c-2.735-3.684-8.624-14.743-14.97-46.258
		c-4.915-24.407-9.022-55.867-12.045-91.963c7.01-5.034,11.59-13.249,11.59-22.519C133.075,12.432,120.643,0,105.362,0
		S77.649,12.432,77.649,27.713c0,13.762,10.084,25.208,23.251,27.349c1.037,12.058,2.193,23.587,3.461,34.51
		c-1.907-2.024-4.605-3.295-7.606-3.295h-0.01c-5.775,0-10.453,4.683-10.453,10.458c0,5.775,4.688,10.458,10.463,10.458
		c3.913,0,7.319-2.153,9.112-5.335c2.561,19.811,5.507,37.358,8.778,52.134c2.263,10.224,4.615,18.929,7.112,26.238
		c-7.944-5.784-14.561-13.343-19.591-20.234C89.38,142.478,78.84,118.731,71.318,90.729c4.1-4.691,6.592-10.82,6.592-17.524
		c0-14.704-11.963-26.667-26.667-26.667S24.576,58.5,24.576,73.204s11.963,26.667,26.667,26.667c0.292,0,0.581-0.013,0.87-0.022
		c8.949,31.94,21.485,58.087,36.449,76.952c-13.521-6.243-25.707-14.567-35.908-24.597c1.774-3.651,2.771-7.746,2.771-12.071
		c0-15.281-12.432-27.713-27.713-27.713S0,124.853,0,140.134s12.432,27.713,27.713,27.713c3.298,0,6.463-0.582,9.399-1.644
		c19.794,19.79,46.006,33.978,75.047,40.5v79.839c0,5.775,4.682,10.458,10.458,10.458h51.766c5.775,0,10.458-4.682,10.458-10.458
		v-79.852c29.042-6.523,55.268-20.693,75.064-40.482c2.932,1.058,6.09,1.638,9.382,1.638c15.281,0,27.713-12.432,27.713-27.713
		S284.568,112.421,269.287,112.421z M245.757,67.452c3.171,0,5.752,2.581,5.752,5.752c0,3.171-2.581,5.752-5.752,5.752
		c-3.171,0-5.752-2.581-5.752-5.752C240.005,70.033,242.586,67.452,245.757,67.452z M191.638,20.915
		c3.748,0,6.798,3.049,6.798,6.798s-3.049,6.798-6.798,6.798c-3.748,0-6.798-3.049-6.798-6.798S187.89,20.915,191.638,20.915z
		 M105.362,20.915c3.748,0,6.798,3.049,6.798,6.798s-3.049,6.798-6.798,6.798s-6.798-3.049-6.798-6.798
		S101.614,20.915,105.362,20.915z M45.491,73.204c0-3.171,2.581-5.752,5.752-5.752s5.752,2.581,5.752,5.752
		c0,3.171-2.581,5.752-5.752,5.752S45.491,76.375,45.491,73.204z M20.915,140.134c0-3.748,3.049-6.798,6.798-6.798
		s6.798,3.049,6.798,6.798c0,3.748-3.049,6.798-6.798,6.798S20.915,143.882,20.915,140.134z M163.925,276.085h-30.85v-66.09
		c5.092,0.474,10.238,0.73,15.425,0.73s10.333-0.256,15.425-0.73V276.085z M269.287,146.931c-3.748,0-6.798-3.049-6.798-6.798
		c0-3.748,3.049-6.798,6.798-6.798c3.748,0,6.798,3.049,6.798,6.798C276.085,143.882,273.035,146.931,269.287,146.931z"/>
	<path d="M200.276,103.532c-5.775,0-10.453,4.682-10.453,10.458c0,5.775,4.688,10.458,10.463,10.458
		c5.776,0,10.458-4.682,10.458-10.458c0-5.775-4.681-10.458-10.458-10.458H200.276z"/>
	<path d="M148.52,72.681c5.776,0,10.458-4.682,10.458-10.458s-4.681-10.458-10.458-10.458h-0.01
		c-5.775,0-10.453,4.682-10.453,10.458S142.745,72.681,148.52,72.681z"/>
	<path d="M27.733,172.553h-0.01c-5.775,0-10.453,4.683-10.453,10.458c0,5.775,4.688,10.458,10.463,10.458
		c5.776,0,10.458-4.682,10.458-10.458C38.191,177.235,33.51,172.553,27.733,172.553z"/>
	<path d="M269.307,172.553h-0.01c-5.775,0-10.453,4.683-10.453,10.458c0,5.775,4.688,10.458,10.463,10.458
		c5.776,0,10.458-4.682,10.458-10.458C279.765,177.235,275.084,172.553,269.307,172.553z"/>
	<path d="M148.52,124.447c5.776,0,10.458-4.682,10.458-10.458c0-5.775-4.681-10.458-10.458-10.458h-0.01
		c-5.775,0-10.453,4.682-10.453,10.458C138.058,119.765,142.745,124.447,148.52,124.447z"/>
</g>
<g>
</g>
<g>
</g>
<g>
</g>
<g>
</g>
<g>
</g>
<g>
</g>
<g>
</g>
<g>
</g>
<g>
</g>
<g>
</g>
<g>
</g>
<g>
</g>
<g>
</g>
<g>
</g>
<g>
</g>
</svg>
