<?xml version="1.0" encoding="iso-8859-1"?>
<!-- Generator: Adobe Illustrator 19.0.0, SVG Export Plug-In . SVG Version: 6.00 Build 0)  -->
<svg version="1.1" id="Layer_1" xmlns="http://www.w3.org/2000/svg" xmlns:xlink="http://www.w3.org/1999/xlink" x="0px" y="0px"
	 viewBox="0 0 512 512" style="enable-background:new 0 0 512 512;" xml:space="preserve">
<path style="fill:#43D177;" d="M142.519,414.889h45.395h45.395h45.395h45.395h45.395h16.482c15.967,0,28.913-12.945,28.913-28.913
	V126.024c0-15.967-12.945-28.9-28.913-28.9h-16.482h-45.395h-45.395h-45.395h-45.395h-45.395h-16.495
	c-15.967,0-28.9,12.932-28.9,28.9v259.952c0,15.967,12.932,28.913,28.9,28.913H142.519z M498.804,122.316v348.987
	c0,15.189-12.312,27.501-27.501,27.501H40.697c-15.189,0-27.501-12.312-27.501-27.501V122.316c16.139,0,29.23-13.091,29.23-29.243
	c0-16.139-13.091-29.23-29.23-29.23V40.697c0-15.189,12.312-27.501,27.501-27.501h430.606c15.189,0,27.501,12.312,27.501,27.501
	v23.146c-16.139,0-29.23,13.091-29.23,29.23C469.574,109.225,482.665,122.316,498.804,122.316z"/>
<g>
	<path style="fill:#9DA6BA;" d="M233.401,256.284h22.605c12.484,0,22.605-10.121,22.605-22.605c0-12.47-10.121-22.592-22.605-22.592
		h-22.605V256.284z M414.889,126.024v259.952c0,15.967-12.945,28.913-28.913,28.913h-16.482h-45.395h-45.395h-45.395h-45.395
		h-45.395h-16.495c-15.967,0-28.9-12.945-28.9-28.913V126.024c0-15.967,12.932-28.9,28.9-28.9h16.495h45.395h45.395h45.395h45.395
		h45.395h16.482C401.944,97.124,414.889,110.056,414.889,126.024z"/>
	<path style="fill:#9DA6BA;" d="M256.007,211.087c12.484,0,22.605,10.121,22.605,22.592c0,12.484-10.121,22.605-22.605,22.605
		h-22.605v-45.197H256.007z"/>
</g>
<path d="M40.697,512h430.606c22.44,0,40.697-18.257,40.697-40.697V122.316c0-7.288-5.908-13.196-13.196-13.196
	c-8.841,0-16.033-7.199-16.033-16.047c0-8.84,7.192-16.033,16.033-16.033c7.288,0,13.196-5.908,13.196-13.196V40.697
	C512,18.257,493.743,0,471.303,0H40.697C18.257,0,0,18.257,0,40.697v23.146C0,71.132,5.908,77.04,13.196,77.04
	c8.841,0,16.033,7.192,16.033,16.033c0,8.848-7.192,16.047-16.033,16.047C5.908,109.12,0,115.027,0,122.316v348.987
	C0,493.743,18.257,512,40.697,512z M26.392,133.411c16.953-5.562,29.23-21.543,29.23-40.338c0-18.789-12.276-34.764-29.23-40.325
	V40.697c0-7.887,6.417-14.305,14.305-14.305h430.606c7.889,0,14.305,6.417,14.305,14.305v12.051
	c-16.953,5.561-29.23,21.536-29.23,40.325c0,18.794,12.276,34.775,29.23,40.338v337.892c0,7.889-6.417,14.305-14.305,14.305H40.697
	c-7.889,0-14.305-6.417-14.305-14.305V133.411z"/>
<path d="M126.024,428.085h3.299v14.305c0,7.288,5.908,13.196,13.196,13.196c7.288,0,13.196-5.908,13.196-13.196v-14.305h19.003
	v14.305c0,7.288,5.908,13.196,13.196,13.196c7.288,0,13.196-5.908,13.196-13.196v-14.305h19.003v14.305
	c0,7.288,5.908,13.196,13.196,13.196s13.196-5.908,13.196-13.196v-14.305h19.003v14.305c0,7.288,5.908,13.196,13.196,13.196
	s13.196-5.908,13.196-13.196v-14.305h19.003v14.305c0,7.288,5.908,13.196,13.196,13.196s13.196-5.908,13.196-13.196v-14.305h19.003
	v14.305c0,7.288,5.908,13.196,13.196,13.196c7.288,0,13.196-5.908,13.196-13.196v-14.305h3.286
	c23.219,0,42.109-18.889,42.109-42.109V126.024c0-23.212-18.889-42.096-42.109-42.096h-3.286V69.61
	c0-7.288-5.908-13.196-13.196-13.196c-7.288,0-13.196,5.908-13.196,13.196v14.318h-19.003V69.61c0-7.288-5.908-13.196-13.196-13.196
	s-13.196,5.908-13.196,13.196v14.318H291.9V69.61c0-7.288-5.908-13.196-13.196-13.196c-7.288,0-13.196,5.908-13.196,13.196v14.318
	h-19.003V69.61c0-7.288-5.908-13.196-13.196-13.196c-7.288,0-13.196,5.908-13.196,13.196v14.318H201.11V69.61
	c0-7.288-5.908-13.196-13.196-13.196c-7.288,0-13.196,5.908-13.196,13.196v14.318h-19.003V69.61c0-7.288-5.908-13.196-13.196-13.196
	c-7.288,0-13.196,5.908-13.196,13.196v14.318h-3.299c-23.212,0-42.096,18.884-42.096,42.096v259.952
	C83.928,409.195,102.812,428.085,126.024,428.085z M110.32,126.024c0-8.659,7.044-15.703,15.703-15.703h259.952
	c8.666,0,15.717,7.044,15.717,15.703v259.952c0,8.666-7.051,15.717-15.717,15.717H126.024c-8.659,0-15.703-7.051-15.703-15.717
	V126.024z"/>
<path d="M137.98,233.679v44.656c0,19.734,16.06,35.788,35.801,35.788c19.734,0,35.788-16.055,35.788-35.788
	c0-7.288-5.908-13.196-13.196-13.196c-7.288,0-13.196,5.908-13.196,13.196c0,5.181-4.215,9.396-9.396,9.396
	c-5.189,0-9.409-4.215-9.409-9.396v-44.656c0-5.181,4.22-9.396,9.409-9.396c5.181,0,9.396,4.215,9.396,9.396
	c0,7.288,5.908,13.196,13.196,13.196c7.288,0,13.196-5.908,13.196-13.196c0-19.734-16.055-35.788-35.788-35.788
	C154.039,197.89,137.98,213.945,137.98,233.679z"/>
<path d="M338.232,314.123c19.74,0,35.801-16.055,35.801-35.788v-67.248c0-7.288-5.908-13.196-13.196-13.196
	c-7.288,0-13.196,5.908-13.196,13.196v67.248c0,5.181-4.22,9.396-9.409,9.396c-5.181,0-9.396-4.215-9.396-9.396v-67.248
	c0-7.288-5.908-13.196-13.196-13.196s-13.196,5.908-13.196,13.196v67.248C302.444,298.068,318.499,314.123,338.232,314.123z"/>
<path d="M220.205,211.087v45.197v44.643c0,7.288,5.908,13.196,13.196,13.196c7.288,0,13.196-5.908,13.196-13.196V269.48h9.409
	c19.74,0,35.801-16.06,35.801-35.801c0-19.734-16.06-35.788-35.801-35.788h-22.605C226.113,197.89,220.205,203.798,220.205,211.087z
	 M246.598,224.283h9.409c5.189,0,9.409,4.215,9.409,9.396c0,5.189-4.22,9.409-9.409,9.409h-9.409V224.283z"/>
<path d="M142.519,154.778h8.657c7.288,0,13.196-5.908,13.196-13.196c0-7.288-5.908-13.196-13.196-13.196h-8.657
	c-7.288,0-13.196,5.908-13.196,13.196C129.323,148.87,135.231,154.778,142.519,154.778z"/>
<path d="M187.914,154.778h45.395c7.288,0,13.196-5.908,13.196-13.196c0-7.288-5.908-13.196-13.196-13.196h-45.395
	c-7.288,0-13.196,5.908-13.196,13.196C174.718,148.87,180.626,154.778,187.914,154.778z"/>
<g>
</g>
<g>
</g>
<g>
</g>
<g>
</g>
<g>
</g>
<g>
</g>
<g>
</g>
<g>
</g>
<g>
</g>
<g>
</g>
<g>
</g>
<g>
</g>
<g>
</g>
<g>
</g>
<g>
</g>
</svg>
