<?xml version="1.0" encoding="iso-8859-1"?>
<!-- Generator: Adobe Illustrator 19.0.0, SVG Export Plug-In . SVG Version: 6.00 Build 0)  -->
<svg version="1.1" id="Layer_1" xmlns="http://www.w3.org/2000/svg" xmlns:xlink="http://www.w3.org/1999/xlink" x="0px" y="0px"
	 viewBox="0 0 512 512" style="enable-background:new 0 0 512 512;" xml:space="preserve">
<path style="fill:#5A5D6F;" d="M393.648,143.218v30.012c0,10.42-8.452,18.872-18.872,18.872H137.224
	c-10.42,0-18.872-8.452-18.872-18.872v-30.012c0-10.42,8.452-18.872,18.872-18.872h55.741h132.503h49.309
	C385.196,124.347,393.648,132.798,393.648,143.218z"/>
<g>
	<path style="fill:#9DA6BA;" d="M367.071,192.103l-18.164,117.541c-4.348,28.224-28.636,49.039-57.182,49.039h-8.49h-54.468h-8.49
		c-28.546,0-52.834-20.814-57.182-49.039l-18.164-117.541L367.071,192.103L367.071,192.103z"/>
	<path style="fill:#9DA6BA;" d="M283.234,361.912v39.339c0,10.484-8.503,18.988-18.975,18.988H256h-8.259
		c-10.472,0-18.975-8.503-18.975-18.988v-39.339H283.234z"/>
</g>
<path d="M406.513,173.231v-30.012c0-17.499-14.237-31.736-31.736-31.736h-36.445V12.864C338.332,5.759,332.571,0,325.467,0
	c-7.104,0-12.864,5.759-12.864,12.864v98.618H205.829V12.864C205.829,5.759,200.069,0,192.965,0S180.1,5.759,180.1,12.864v98.618
	h-42.877c-17.499,0-31.736,14.237-31.736,31.736v30.012c0,16.192,12.193,29.581,27.877,31.493l17.016,110.107
	c5.128,33.281,32.334,57.803,65.523,59.797v26.623c0,15.999,11.852,29.274,27.234,31.515v66.37c0,7.105,5.761,12.864,12.864,12.864
	c7.104,0,12.864-5.759,12.864-12.864v-66.37c15.382-2.24,27.234-15.516,27.234-31.515v-26.623
	c33.187-1.994,60.394-26.516,65.522-59.791l17.017-110.113C394.32,202.812,406.513,189.423,406.513,173.231z M270.369,401.251
	c0,3.377-2.741,6.123-6.111,6.123h-16.518c-3.369,0-6.111-2.747-6.111-6.123v-26.475h28.739V401.251z M336.191,310.915
	c-3.404,22.096-22.105,38.134-44.467,38.134h-8.49h-54.468h-8.49c-22.363,0-41.064-16.037-44.468-38.139l-16.372-105.942h117.896
	c7.104,0,12.864-5.759,12.864-12.864c0-7.105-5.761-12.864-12.864-12.864H137.224c-3.313,0-6.008-2.695-6.008-6.008V143.22
	c0-3.313,2.695-6.008,6.008-6.008h237.553c3.313,0,6.008,2.695,6.008,6.008v30.012c0,3.313-2.695,6.008-6.008,6.008h-21.651
	c-7.104,0-12.864,5.759-12.864,12.864c0,6.917,5.464,12.543,12.307,12.836L336.191,310.915z"/>
<path d="M317.642,179.239h-2.038h-2.6c-7.104,0-12.864,5.759-12.864,12.864c0,7.105,5.761,12.864,12.864,12.864h2.6h2.038
	c7.104,0,12.864-5.759,12.864-12.864C330.506,184.998,324.746,179.239,317.642,179.239z"/>
<path d="M297.166,232.844h-79.759c-7.104,0-12.864,5.759-12.864,12.864c0,7.105,5.761,12.864,12.864,12.864h79.759
	c7.104,0,12.864-5.759,12.864-12.864C310.03,238.604,304.27,232.844,297.166,232.844z"/>
<path d="M283.234,283.877h-51.882c-7.104,0-12.864,5.759-12.864,12.864s5.761,12.864,12.864,12.864h51.882
	c7.104,0,12.864-5.759,12.864-12.864S290.337,283.877,283.234,283.877z"/>
<g>
</g>
<g>
</g>
<g>
</g>
<g>
</g>
<g>
</g>
<g>
</g>
<g>
</g>
<g>
</g>
<g>
</g>
<g>
</g>
<g>
</g>
<g>
</g>
<g>
</g>
<g>
</g>
<g>
</g>
</svg>
