<?xml version="1.0" encoding="utf-8"?>
<!-- Generator: Adobe Illustrator 16.0.0, SVG Export Plug-In . SVG Version: 6.00 Build 0)  -->
<!DOCTYPE svg PUBLIC "-//W3C//DTD SVG 1.1//EN" "http://www.w3.org/Graphics/SVG/1.1/DTD/svg11.dtd">
<svg version="1.1" id="Capa_1" xmlns="http://www.w3.org/2000/svg" xmlns:xlink="http://www.w3.org/1999/xlink" x="0px" y="0px"
	 width="800px" height="800px" viewBox="0 0 800 800" enable-background="new 0 0 800 800" xml:space="preserve">
<g>
	<path fill="#FFFFFF" d="M412.37,326.882h-46.486v31.535h408.31v-31.535H463.982c-7.126,0-12.902-5.775-12.902-12.903h-25.807
		C425.273,321.106,419.496,326.882,412.37,326.882z"/>
	<path fill="#FFFFFF" d="M645.161,543.363c0,7.128-5.777,12.903-12.903,12.903H25.807v31.553h748.387v-31.553h-90.322
		c-7.126,0-12.903-5.775-12.903-12.903l0,0H645.161L645.161,543.363z"/>
	<rect x="25.807" y="441.583" fill="#FFFFFF" width="748.387" height="31.535"/>
	<rect x="365.884" y="212.181" fill="#FFFFFF" width="408.31" height="31.553"/>
	<rect x="24.807" y="612.626" fill="#ED1F34" width="750.387" height="33.535"/>
	<rect x="25.807" y="613.626" fill="#ED1F34" width="748.387" height="31.535"/>
	<path fill="#ED1F34" d="M644.161,544.363v-1c0-6.563-5.34-11.903-11.903-11.903H24.807v-33.535h750.387v33.535h-91.322
		c-6.563,0-11.903,5.34-11.903,11.903v1H644.161z"/>
	<path fill="#ED1F34" d="M25.807,498.925v31.535h606.451c7.126,0,12.903,5.775,12.903,12.903h25.807
		c0-7.128,5.777-12.903,12.903-12.903h90.322v-31.535H25.807z"/>
	<rect x="364.884" y="383.224" fill="#ED1F34" width="410.31" height="33.553"/>
	<rect x="365.884" y="384.224" fill="#ED1F34" width="408.31" height="31.553"/>
	<path fill="#ED1F34" d="M424.273,314.979v-1c0-6.563-5.34-11.903-11.903-11.903h-47.486V268.54h410.31v33.535H463.982
		c-6.563,0-11.902,5.34-11.902,11.903v1H424.273z"/>
	<path fill="#ED1F34" d="M365.884,269.54v31.535h46.486c7.126,0,12.903,5.775,12.903,12.903h25.807
		c0-7.128,5.776-12.903,12.902-12.903h310.211V269.54H365.884z"/>
	<rect x="364.884" y="153.839" fill="#ED1F34" width="410.31" height="33.535"/>
	<rect x="365.884" y="154.839" fill="#ED1F34" width="408.31" height="31.535"/>
	<path fill="#164FCE" d="M24.807,416.776V153.839h316.271v262.938H24.807z M310.839,376.114c-4.571,0-8.29,3.719-8.29,8.291
		s3.719,8.291,8.29,8.291s8.29-3.719,8.29-8.291S315.41,376.114,310.839,376.114z M259.68,376.114c-4.571,0-8.291,3.719-8.291,8.291
		s3.719,8.291,8.291,8.291s8.29-3.719,8.29-8.291S264.251,376.114,259.68,376.114z M208.521,376.114
		c-4.571,0-8.291,3.719-8.291,8.291s3.719,8.291,8.291,8.291s8.29-3.719,8.29-8.291S213.093,376.114,208.521,376.114z
		 M157.363,376.114c-4.571,0-8.291,3.719-8.291,8.291s3.719,8.291,8.291,8.291s8.29-3.719,8.29-8.291
		S161.934,376.114,157.363,376.114z M106.204,376.114c-4.571,0-8.291,3.719-8.291,8.291s3.719,8.291,8.291,8.291
		s8.29-3.719,8.29-8.291S110.775,376.114,106.204,376.114z M55.045,376.114c-4.571,0-8.29,3.719-8.29,8.291s3.719,8.291,8.29,8.291
		s8.291-3.719,8.291-8.291S59.616,376.114,55.045,376.114z M285.259,351.34c-4.571,0-8.29,3.719-8.29,8.29s3.719,8.291,8.29,8.291
		s8.291-3.719,8.291-8.291S289.831,351.34,285.259,351.34z M234.101,351.34c-4.571,0-8.29,3.719-8.29,8.29s3.719,8.291,8.29,8.291
		s8.291-3.719,8.291-8.291S238.672,351.34,234.101,351.34z M182.942,351.34c-4.571,0-8.291,3.719-8.291,8.29
		s3.719,8.291,8.291,8.291s8.291-3.719,8.291-8.291S187.513,351.34,182.942,351.34z M131.783,351.34
		c-4.571,0-8.291,3.719-8.291,8.29s3.719,8.291,8.291,8.291s8.291-3.719,8.291-8.291S136.354,351.34,131.783,351.34z M80.625,351.34
		c-4.571,0-8.291,3.719-8.291,8.29s3.719,8.291,8.291,8.291s8.291-3.719,8.291-8.291S85.196,351.34,80.625,351.34z M310.839,326.565
		c-4.571,0-8.29,3.718-8.29,8.289c0,4.571,3.719,8.291,8.29,8.291s8.29-3.719,8.29-8.291
		C319.129,330.284,315.41,326.565,310.839,326.565z M259.68,326.565c-4.571,0-8.291,3.718-8.291,8.289
		c0,4.571,3.719,8.291,8.291,8.291s8.29-3.719,8.29-8.291C267.97,330.284,264.251,326.565,259.68,326.565z M208.521,326.565
		c-4.571,0-8.291,3.718-8.291,8.289c0,4.571,3.719,8.291,8.291,8.291s8.29-3.719,8.29-8.291
		C216.812,330.284,213.093,326.565,208.521,326.565z M157.363,326.565c-4.571,0-8.291,3.718-8.291,8.289
		c0,4.571,3.719,8.291,8.291,8.291s8.29-3.719,8.29-8.291C165.653,330.284,161.934,326.565,157.363,326.565z M106.204,326.565
		c-4.571,0-8.291,3.718-8.291,8.289c0,4.571,3.719,8.291,8.291,8.291s8.29-3.719,8.29-8.291
		C114.494,330.284,110.775,326.565,106.204,326.565z M55.045,326.565c-4.571,0-8.29,3.718-8.29,8.289
		c0,4.571,3.719,8.291,8.29,8.291s8.291-3.719,8.291-8.291C63.335,330.284,59.616,326.565,55.045,326.565z M285.259,301.792
		c-4.571,0-8.29,3.719-8.29,8.29s3.719,8.291,8.29,8.291s8.291-3.719,8.291-8.291S289.831,301.792,285.259,301.792z
		 M234.101,301.792c-4.571,0-8.29,3.719-8.29,8.29s3.719,8.291,8.29,8.291s8.291-3.719,8.291-8.291S238.672,301.792,234.101,301.792
		z M182.942,301.792c-4.571,0-8.291,3.719-8.291,8.29s3.719,8.291,8.291,8.291s8.291-3.719,8.291-8.291
		S187.513,301.792,182.942,301.792z M131.783,301.792c-4.571,0-8.291,3.719-8.291,8.29s3.719,8.291,8.291,8.291
		s8.291-3.719,8.291-8.291S136.354,301.792,131.783,301.792z M80.625,301.792c-4.571,0-8.291,3.719-8.291,8.29
		s3.719,8.291,8.291,8.291s8.291-3.719,8.291-8.291S85.196,301.792,80.625,301.792z M310.839,277.017
		c-4.571,0-8.29,3.719-8.29,8.291s3.719,8.29,8.29,8.29s8.29-3.719,8.29-8.29S315.41,277.017,310.839,277.017z M259.68,277.017
		c-4.571,0-8.291,3.719-8.291,8.291s3.719,8.29,8.291,8.29s8.29-3.719,8.29-8.29S264.251,277.017,259.68,277.017z M208.521,277.017
		c-4.571,0-8.291,3.719-8.291,8.291s3.719,8.29,8.291,8.29s8.29-3.719,8.29-8.29S213.093,277.017,208.521,277.017z M157.363,277.017
		c-4.571,0-8.291,3.719-8.291,8.291s3.719,8.29,8.291,8.29s8.29-3.719,8.29-8.29S161.934,277.017,157.363,277.017z M106.204,277.017
		c-4.571,0-8.291,3.719-8.291,8.291s3.719,8.29,8.291,8.29s8.29-3.719,8.29-8.29S110.775,277.017,106.204,277.017z M55.045,277.017
		c-4.571,0-8.29,3.719-8.29,8.291s3.719,8.29,8.29,8.29s8.291-3.719,8.291-8.29S59.616,277.017,55.045,277.017z M285.259,252.243
		c-4.571,0-8.29,3.719-8.29,8.29s3.719,8.291,8.29,8.291s8.291-3.719,8.291-8.291S289.831,252.243,285.259,252.243z
		 M234.101,252.243c-4.571,0-8.29,3.719-8.29,8.29s3.719,8.291,8.29,8.291s8.291-3.719,8.291-8.291S238.672,252.243,234.101,252.243
		z M182.942,252.243c-4.571,0-8.291,3.719-8.291,8.29s3.719,8.291,8.291,8.291s8.291-3.719,8.291-8.291
		S187.513,252.243,182.942,252.243z M131.783,252.243c-4.571,0-8.291,3.719-8.291,8.29s3.719,8.291,8.291,8.291
		s8.291-3.719,8.291-8.291S136.354,252.243,131.783,252.243z M80.625,252.243c-4.571,0-8.291,3.719-8.291,8.29
		s3.719,8.291,8.291,8.291s8.291-3.719,8.291-8.291S85.196,252.243,80.625,252.243z M310.839,227.469
		c-4.571,0-8.29,3.719-8.29,8.291s3.719,8.29,8.29,8.29s8.29-3.719,8.29-8.29S315.41,227.469,310.839,227.469z M259.68,227.469
		c-4.571,0-8.291,3.719-8.291,8.291s3.719,8.29,8.291,8.29s8.29-3.719,8.29-8.29S264.251,227.469,259.68,227.469z M208.521,227.469
		c-4.571,0-8.291,3.719-8.291,8.291s3.719,8.29,8.291,8.29s8.29-3.719,8.29-8.29S213.093,227.469,208.521,227.469z M157.363,227.469
		c-4.571,0-8.291,3.719-8.291,8.291s3.719,8.29,8.291,8.29s8.29-3.719,8.29-8.29S161.934,227.469,157.363,227.469z M106.204,227.469
		c-4.571,0-8.291,3.719-8.291,8.291s3.719,8.29,8.291,8.29s8.29-3.719,8.29-8.29S110.775,227.469,106.204,227.469z M55.045,227.469
		c-4.571,0-8.29,3.719-8.29,8.291s3.719,8.29,8.29,8.29s8.291-3.719,8.291-8.29S59.616,227.469,55.045,227.469z M285.259,202.695
		c-4.571,0-8.29,3.719-8.29,8.29s3.719,8.291,8.29,8.291s8.291-3.719,8.291-8.291S289.831,202.695,285.259,202.695z
		 M234.101,202.695c-4.571,0-8.29,3.719-8.29,8.29s3.719,8.291,8.29,8.291s8.291-3.719,8.291-8.291S238.672,202.695,234.101,202.695
		z M182.942,202.695c-4.571,0-8.291,3.719-8.291,8.29s3.719,8.291,8.291,8.291s8.291-3.719,8.291-8.291
		S187.513,202.695,182.942,202.695z M131.783,202.695c-4.571,0-8.291,3.719-8.291,8.29s3.719,8.291,8.291,8.291
		s8.291-3.719,8.291-8.291S136.354,202.695,131.783,202.695z M80.625,202.695c-4.571,0-8.291,3.719-8.291,8.29
		s3.719,8.291,8.291,8.291s8.291-3.719,8.291-8.291S85.196,202.695,80.625,202.695z M310.839,177.92c-4.571,0-8.29,3.719-8.29,8.291
		s3.719,8.29,8.29,8.29s8.29-3.719,8.29-8.29S315.41,177.92,310.839,177.92z M259.68,177.92c-4.571,0-8.291,3.719-8.291,8.291
		s3.719,8.29,8.291,8.29s8.29-3.719,8.29-8.29S264.251,177.92,259.68,177.92z M208.521,177.92c-4.571,0-8.291,3.719-8.291,8.291
		s3.719,8.29,8.291,8.29s8.29-3.719,8.29-8.29S213.093,177.92,208.521,177.92z M157.363,177.92c-4.571,0-8.291,3.719-8.291,8.291
		s3.719,8.29,8.291,8.29s8.29-3.719,8.29-8.29S161.934,177.92,157.363,177.92z M106.204,177.92c-4.571,0-8.291,3.719-8.291,8.291
		s3.719,8.29,8.291,8.29s8.29-3.719,8.29-8.29S110.775,177.92,106.204,177.92z M55.045,177.92c-4.571,0-8.29,3.719-8.29,8.291
		s3.719,8.29,8.29,8.29s8.291-3.719,8.291-8.29S59.616,177.92,55.045,177.92z"/>
	<path fill="#164FCE" d="M25.807,415.776h314.271V154.839H25.807V415.776z M310.839,176.92c5.13,0,9.29,4.158,9.29,9.291
		c0,5.13-4.16,9.29-9.29,9.29c-5.131,0-9.29-4.16-9.29-9.29C301.549,181.079,305.707,176.92,310.839,176.92z M310.839,226.469
		c5.13,0,9.29,4.16,9.29,9.291s-4.16,9.29-9.29,9.29c-5.131,0-9.29-4.158-9.29-9.29
		C301.549,230.629,305.707,226.469,310.839,226.469z M310.839,276.017c5.13,0,9.29,4.159,9.29,9.291s-4.16,9.29-9.29,9.29
		c-5.131,0-9.29-4.158-9.29-9.29S305.707,276.017,310.839,276.017z M310.839,325.565c5.13,0,9.29,4.158,9.29,9.289
		s-4.16,9.291-9.29,9.291c-5.131,0-9.29-4.158-9.29-9.291C301.549,329.726,305.707,325.565,310.839,325.565z M310.839,375.114
		c5.13,0,9.29,4.159,9.29,9.291s-4.16,9.291-9.29,9.291c-5.131,0-9.29-4.159-9.29-9.291S305.707,375.114,310.839,375.114z
		 M285.259,201.695c5.13,0,9.291,4.158,9.291,9.29c0,5.132-4.16,9.291-9.291,9.291s-9.29-4.158-9.29-9.291
		C275.969,205.853,280.127,201.695,285.259,201.695z M285.259,251.243c5.13,0,9.291,4.158,9.291,9.29c0,5.13-4.16,9.291-9.291,9.291
		s-9.29-4.16-9.29-9.291S280.127,251.243,285.259,251.243z M285.259,300.792c5.13,0,9.291,4.16,9.291,9.29s-4.16,9.291-9.291,9.291
		s-9.29-4.158-9.29-9.291C275.969,304.951,280.127,300.792,285.259,300.792z M285.259,350.34c5.13,0,9.291,4.158,9.291,9.29
		c0,5.132-4.16,9.291-9.291,9.291s-9.29-4.158-9.29-9.291C275.969,354.498,280.127,350.34,285.259,350.34z M259.68,176.92
		c5.13,0,9.29,4.158,9.29,9.291c0,5.13-4.16,9.29-9.29,9.29s-9.291-4.16-9.291-9.29C250.39,181.079,254.55,176.92,259.68,176.92z
		 M259.68,226.469c5.13,0,9.29,4.16,9.29,9.291s-4.16,9.29-9.29,9.29s-9.291-4.158-9.291-9.29
		C250.39,230.629,254.55,226.469,259.68,226.469z M259.68,276.017c5.13,0,9.29,4.159,9.29,9.291s-4.16,9.29-9.29,9.29
		s-9.291-4.158-9.291-9.29S254.55,276.017,259.68,276.017z M259.68,325.565c5.13,0,9.29,4.158,9.29,9.289s-4.16,9.291-9.29,9.291
		s-9.291-4.158-9.291-9.291C250.39,329.726,254.55,325.565,259.68,325.565z M259.68,375.114c5.13,0,9.29,4.159,9.29,9.291
		s-4.16,9.291-9.29,9.291s-9.291-4.159-9.291-9.291S254.55,375.114,259.68,375.114z M234.101,201.695c5.13,0,9.291,4.158,9.291,9.29
		c0,5.132-4.16,9.291-9.291,9.291s-9.29-4.158-9.29-9.291C224.811,205.853,228.97,201.695,234.101,201.695z M234.101,251.243
		c5.13,0,9.291,4.158,9.291,9.29c0,5.13-4.16,9.291-9.291,9.291s-9.29-4.16-9.29-9.291S228.97,251.243,234.101,251.243z
		 M234.101,300.792c5.13,0,9.291,4.16,9.291,9.29s-4.16,9.291-9.291,9.291s-9.29-4.158-9.29-9.291
		C224.811,304.951,228.97,300.792,234.101,300.792z M234.101,350.34c5.13,0,9.291,4.158,9.291,9.29c0,5.132-4.16,9.291-9.291,9.291
		s-9.29-4.158-9.29-9.291C224.811,354.498,228.97,350.34,234.101,350.34z M208.521,176.92c5.13,0,9.29,4.158,9.29,9.291
		c0,5.13-4.16,9.29-9.29,9.29c-5.13,0-9.291-4.16-9.291-9.29C199.231,181.079,203.391,176.92,208.521,176.92z M208.521,226.469
		c5.13,0,9.29,4.16,9.29,9.291s-4.16,9.29-9.29,9.29c-5.13,0-9.291-4.158-9.291-9.29
		C199.231,230.629,203.391,226.469,208.521,226.469z M208.521,276.017c5.13,0,9.29,4.159,9.29,9.291s-4.16,9.29-9.29,9.29
		c-5.13,0-9.291-4.158-9.291-9.29S203.391,276.017,208.521,276.017z M208.521,325.565c5.13,0,9.29,4.158,9.29,9.289
		s-4.16,9.291-9.29,9.291c-5.13,0-9.291-4.158-9.291-9.291C199.231,329.726,203.391,325.565,208.521,325.565z M208.521,375.114
		c5.13,0,9.29,4.159,9.29,9.291s-4.16,9.291-9.29,9.291c-5.13,0-9.291-4.159-9.291-9.291S203.391,375.114,208.521,375.114z
		 M182.942,201.695c5.13,0,9.291,4.158,9.291,9.29c0,5.132-4.16,9.291-9.291,9.291s-9.291-4.158-9.291-9.291
		C173.651,205.853,177.812,201.695,182.942,201.695z M182.942,251.243c5.13,0,9.291,4.158,9.291,9.29c0,5.13-4.16,9.291-9.291,9.291
		s-9.291-4.16-9.291-9.291S177.812,251.243,182.942,251.243z M182.942,300.792c5.13,0,9.291,4.16,9.291,9.29
		s-4.16,9.291-9.291,9.291s-9.291-4.158-9.291-9.291C173.651,304.951,177.812,300.792,182.942,300.792z M182.942,350.34
		c5.13,0,9.291,4.158,9.291,9.29c0,5.132-4.16,9.291-9.291,9.291s-9.291-4.158-9.291-9.291
		C173.651,354.498,177.812,350.34,182.942,350.34z M157.363,176.92c5.13,0,9.29,4.158,9.29,9.291c0,5.13-4.16,9.29-9.29,9.29
		s-9.291-4.16-9.291-9.29C148.072,181.079,152.232,176.92,157.363,176.92z M157.363,226.469c5.13,0,9.29,4.16,9.29,9.291
		s-4.16,9.29-9.29,9.29s-9.291-4.158-9.291-9.29C148.072,230.629,152.232,226.469,157.363,226.469z M157.363,276.017
		c5.13,0,9.29,4.159,9.29,9.291s-4.16,9.29-9.29,9.29s-9.291-4.158-9.291-9.29S152.232,276.017,157.363,276.017z M157.363,325.565
		c5.13,0,9.29,4.158,9.29,9.289s-4.16,9.291-9.29,9.291s-9.291-4.158-9.291-9.291C148.072,329.726,152.232,325.565,157.363,325.565z
		 M157.363,375.114c5.13,0,9.29,4.159,9.29,9.291s-4.16,9.291-9.29,9.291s-9.291-4.159-9.291-9.291S152.232,375.114,157.363,375.114
		z M131.783,201.695c5.13,0,9.291,4.158,9.291,9.29c0,5.132-4.16,9.291-9.291,9.291s-9.291-4.158-9.291-9.291
		C122.493,205.853,126.653,201.695,131.783,201.695z M131.783,251.243c5.13,0,9.291,4.158,9.291,9.29c0,5.13-4.16,9.291-9.291,9.291
		s-9.291-4.16-9.291-9.291S126.653,251.243,131.783,251.243z M131.783,300.792c5.13,0,9.291,4.16,9.291,9.29
		s-4.16,9.291-9.291,9.291s-9.291-4.158-9.291-9.291C122.493,304.951,126.653,300.792,131.783,300.792z M131.783,350.34
		c5.13,0,9.291,4.158,9.291,9.29c0,5.132-4.16,9.291-9.291,9.291s-9.291-4.158-9.291-9.291
		C122.493,354.498,126.653,350.34,131.783,350.34z M106.204,176.92c5.13,0,9.29,4.158,9.29,9.291c0,5.13-4.16,9.29-9.29,9.29
		c-5.13,0-9.291-4.16-9.291-9.29C96.914,181.079,101.074,176.92,106.204,176.92z M106.204,226.469c5.13,0,9.29,4.16,9.29,9.291
		s-4.16,9.29-9.29,9.29c-5.13,0-9.291-4.158-9.291-9.29C96.914,230.629,101.074,226.469,106.204,226.469z M106.204,276.017
		c5.13,0,9.29,4.159,9.29,9.291s-4.16,9.29-9.29,9.29c-5.13,0-9.291-4.158-9.291-9.29S101.074,276.017,106.204,276.017z
		 M106.204,325.565c5.13,0,9.29,4.158,9.29,9.289s-4.16,9.291-9.29,9.291c-5.13,0-9.291-4.158-9.291-9.291
		C96.914,329.726,101.074,325.565,106.204,325.565z M106.204,375.114c5.13,0,9.29,4.159,9.29,9.291s-4.16,9.291-9.29,9.291
		c-5.13,0-9.291-4.159-9.291-9.291S101.074,375.114,106.204,375.114z M80.625,201.695c5.13,0,9.291,4.158,9.291,9.29
		c0,5.132-4.16,9.291-9.291,9.291s-9.291-4.158-9.291-9.291C71.334,205.853,75.494,201.695,80.625,201.695z M80.625,251.243
		c5.13,0,9.291,4.158,9.291,9.29c0,5.13-4.16,9.291-9.291,9.291s-9.291-4.16-9.291-9.291S75.494,251.243,80.625,251.243z
		 M80.625,300.792c5.13,0,9.291,4.16,9.291,9.29s-4.16,9.291-9.291,9.291s-9.291-4.158-9.291-9.291
		C71.334,304.951,75.494,300.792,80.625,300.792z M80.625,350.34c5.13,0,9.291,4.158,9.291,9.29c0,5.132-4.16,9.291-9.291,9.291
		s-9.291-4.158-9.291-9.291C71.334,354.498,75.494,350.34,80.625,350.34z M55.045,176.92c5.13,0,9.291,4.158,9.291,9.291
		c0,5.13-4.16,9.29-9.291,9.29c-5.13,0-9.29-4.16-9.29-9.29C45.755,181.079,49.915,176.92,55.045,176.92z M55.045,226.469
		c5.13,0,9.291,4.16,9.291,9.291s-4.16,9.29-9.291,9.29c-5.13,0-9.29-4.158-9.29-9.29C45.755,230.629,49.915,226.469,55.045,226.469
		z M55.045,276.017c5.13,0,9.291,4.159,9.291,9.291s-4.16,9.29-9.291,9.29c-5.13,0-9.29-4.158-9.29-9.29
		S49.915,276.017,55.045,276.017z M55.045,325.565c5.13,0,9.291,4.158,9.291,9.289s-4.16,9.291-9.291,9.291
		c-5.13,0-9.29-4.158-9.29-9.291C45.755,329.726,49.915,325.565,55.045,325.565z M55.045,375.114c5.13,0,9.291,4.159,9.291,9.291
		s-4.16,9.291-9.291,9.291c-5.13,0-9.29-4.159-9.29-9.291S49.915,375.114,55.045,375.114z"/>
	<path d="M787.097,129.032H12.903C5.777,129.032,0,134.808,0,141.936v516.129c0,7.128,5.777,12.903,12.903,12.903h774.193
		c7.126,0,12.903-5.775,12.903-12.903V141.936C800,134.808,794.223,129.032,787.097,129.032z M463.982,301.075
		c-7.126,0-12.902,5.775-12.902,12.903s5.776,12.903,12.902,12.903h310.211v31.535h-408.31v-31.535h46.486
		c7.126,0,12.903-5.775,12.903-12.903s-5.777-12.903-12.903-12.903h-46.486V269.54h408.31v31.535H463.982z M683.871,530.46
		c-7.126,0-12.903,5.775-12.903,12.903l0,0c0,7.128,5.777,12.903,12.903,12.903h90.322v31.553H25.807v-31.553h606.451
		c7.126,0,12.903-5.775,12.903-12.903l0,0c0-7.128-5.777-12.903-12.903-12.903H25.807v-31.535h748.387v31.535H683.871z
		 M25.807,473.118v-31.535h748.387v31.535H25.807z M365.884,415.776v-31.553h408.31v31.553H365.884z M365.884,243.733v-31.553
		h408.31v31.553H365.884z M774.193,186.374h-408.31v-31.535h408.31V186.374z M340.077,415.776H25.807V154.839h314.271V415.776z
		 M25.807,645.161v-31.535h748.387v31.535H25.807z"/>
	<circle fill="#FFFFFF" cx="80.625" cy="359.63" r="9.29"/>
	<circle fill="#FFFFFF" cx="131.783" cy="359.63" r="9.29"/>
	<circle fill="#FFFFFF" cx="182.942" cy="359.63" r="9.29"/>
	<circle fill="#FFFFFF" cx="234.101" cy="359.63" r="9.29"/>
	<circle fill="#FFFFFF" cx="285.259" cy="359.63" r="9.29"/>
	<circle fill="#FFFFFF" cx="55.045" cy="384.404" r="9.291"/>
	<circle fill="#FFFFFF" cx="106.204" cy="384.404" r="9.291"/>
	<circle fill="#FFFFFF" cx="157.363" cy="384.404" r="9.291"/>
	<circle fill="#FFFFFF" cx="208.521" cy="384.404" r="9.291"/>
	<circle fill="#FFFFFF" cx="259.68" cy="384.404" r="9.291"/>
	<circle fill="#FFFFFF" cx="310.839" cy="384.404" r="9.291"/>
	<circle fill="#FFFFFF" cx="55.045" cy="334.856" r="9.29"/>
	<circle fill="#FFFFFF" cx="106.204" cy="334.856" r="9.29"/>
	<circle fill="#FFFFFF" cx="157.363" cy="334.856" r="9.29"/>
	<circle fill="#FFFFFF" cx="208.521" cy="334.856" r="9.29"/>
	<circle fill="#FFFFFF" cx="259.68" cy="334.856" r="9.29"/>
	<circle fill="#FFFFFF" cx="310.839" cy="334.856" r="9.29"/>
	<circle fill="#FFFFFF" cx="80.625" cy="310.082" r="9.29"/>
	<circle fill="#FFFFFF" cx="131.783" cy="310.082" r="9.29"/>
	<circle fill="#FFFFFF" cx="182.942" cy="310.082" r="9.29"/>
	<circle fill="#FFFFFF" cx="234.101" cy="310.082" r="9.29"/>
	<circle fill="#FFFFFF" cx="285.259" cy="310.082" r="9.29"/>
	<circle fill="#FFFFFF" cx="55.045" cy="285.307" r="9.29"/>
	<circle fill="#FFFFFF" cx="106.204" cy="285.307" r="9.29"/>
	<circle fill="#FFFFFF" cx="157.363" cy="285.307" r="9.29"/>
	<circle fill="#FFFFFF" cx="208.521" cy="285.307" r="9.29"/>
	<circle fill="#FFFFFF" cx="259.68" cy="285.307" r="9.29"/>
	<circle fill="#FFFFFF" cx="310.839" cy="285.307" r="9.29"/>
	<circle fill="#FFFFFF" cx="80.625" cy="260.533" r="9.29"/>
	<circle fill="#FFFFFF" cx="131.783" cy="260.533" r="9.29"/>
	<circle fill="#FFFFFF" cx="182.942" cy="260.533" r="9.29"/>
	<circle fill="#FFFFFF" cx="234.101" cy="260.533" r="9.29"/>
	<circle fill="#FFFFFF" cx="285.259" cy="260.533" r="9.29"/>
	<circle fill="#FFFFFF" cx="55.045" cy="235.759" r="9.29"/>
	<circle fill="#FFFFFF" cx="106.204" cy="235.759" r="9.29"/>
	<circle fill="#FFFFFF" cx="157.363" cy="235.759" r="9.29"/>
	<circle fill="#FFFFFF" cx="208.521" cy="235.759" r="9.29"/>
	<circle fill="#FFFFFF" cx="259.68" cy="235.759" r="9.29"/>
	<circle fill="#FFFFFF" cx="310.839" cy="235.759" r="9.29"/>
	<circle fill="#FFFFFF" cx="80.625" cy="210.985" r="9.29"/>
	<circle fill="#FFFFFF" cx="131.783" cy="210.985" r="9.29"/>
	<circle fill="#FFFFFF" cx="182.942" cy="210.985" r="9.29"/>
	<circle fill="#FFFFFF" cx="234.101" cy="210.985" r="9.29"/>
	<circle fill="#FFFFFF" cx="285.259" cy="210.985" r="9.29"/>
	<circle fill="#FFFFFF" cx="55.045" cy="186.211" r="9.29"/>
	<circle fill="#FFFFFF" cx="106.204" cy="186.211" r="9.29"/>
	<circle fill="#FFFFFF" cx="157.363" cy="186.211" r="9.29"/>
	<circle fill="#FFFFFF" cx="208.521" cy="186.211" r="9.29"/>
	<circle fill="#FFFFFF" cx="259.68" cy="186.211" r="9.29"/>
	<circle fill="#FFFFFF" cx="310.839" cy="186.211" r="9.29"/>
</g>
</svg>
