<?xml version="1.0" encoding="iso-8859-1"?>
<!-- Generator: Adobe Illustrator 19.0.0, SVG Export Plug-In . SVG Version: 6.00 Build 0)  -->
<svg version="1.1" id="Layer_1" xmlns="http://www.w3.org/2000/svg" xmlns:xlink="http://www.w3.org/1999/xlink" x="0px" y="0px"
	 viewBox="0 0 512 512" style="enable-background:new 0 0 512 512;" xml:space="preserve">
<path style="fill:#E4EAF8;" d="M427.03,452.68H33.671c-14.168,0-25.654-11.485-25.654-25.654V84.974
	c0-14.168,11.485-25.654,25.654-25.654H427.03c14.168,0,25.654,11.485,25.654,25.654v342.052
	C452.684,441.194,441.198,452.68,427.03,452.68z"/>
<g>
	<circle style="fill:#FF5050;" cx="76.427" cy="256.004" r="17.103"/>
	<circle style="fill:#FF5050;" cx="76.427" cy="324.415" r="17.103"/>
	<circle style="fill:#FF5050;" cx="76.427" cy="392.825" r="17.103"/>
</g>
<path style="fill:#D5DCED;" d="M452.684,153.385L260.889,345.178l-21.927,46.986c-2.717,5.823,3.322,11.864,9.146,9.146
	l46.986-21.928l157.59-157.587V153.385z"/>
<path style="fill:#FFDC64;" d="M230.396,384.819l41.526-19.378c3.613-1.686,6.903-3.99,9.722-6.809l219.843-219.843
	c3.339-3.339,3.339-8.754,0-12.094l-22.113-22.113c-3.339-3.339-8.754-3.339-12.094,0L247.438,324.425
	c-2.819,2.819-5.123,6.109-6.809,9.722l-19.378,41.526C218.533,381.497,224.572,387.536,230.396,384.819z"/>
<path style="fill:#FFC850;" d="M222.621,383.449c1.898,1.898,4.864,2.729,7.775,1.37l41.526-19.378
	c3.613-1.687,6.903-3.99,9.722-6.81l200.237-200.237l-17.103-17.103L222.621,383.449z"/>
<path style="fill:#FAEBC8;" d="M281.658,358.616l-34.205-34.205l-0.015,0.015c-2.819,2.819-5.123,6.109-6.809,9.722l-19.378,41.525
	c-2.717,5.823,3.322,11.863,9.146,9.146l41.525-19.378c3.613-1.686,6.903-3.99,9.722-6.81L281.658,358.616z"/>
<path style="fill:#F5DCB4;" d="M264.556,341.513l-41.936,41.936c1.898,1.898,4.864,2.729,7.775,1.37l41.526-19.378
	c3.613-1.686,6.903-3.99,9.722-6.81l0.015-0.015L264.556,341.513z"/>
<path style="fill:#FAEBC8;" d="M479.375,104.582c-3.34-3.34-8.753-3.34-12.094,0l-19.607,19.607l34.205,34.205l19.607-19.607
	c3.34-3.34,3.34-8.754,0-12.094L479.375,104.582z"/>
<path style="fill:#F5DCB4;" d="M501.486,126.694l-11.056-11.056l-25.654,25.654l17.103,17.103l19.607-19.607
	C504.827,135.447,504.827,130.033,501.486,126.694z"/>
<path d="M507.156,121.024l-22.113-22.112c-3.129-3.13-7.29-4.853-11.715-4.853c-4.425,0-8.587,1.723-11.715,4.853l-0.912,0.913
	V84.974c0-18.566-15.105-33.671-33.671-33.671H33.671C15.105,51.304,0,66.408,0,84.974v342.052
	c0,18.566,15.105,33.671,33.671,33.671H427.03c18.566,0,33.671-15.105,33.671-33.671V190.911l46.455-46.455
	C513.615,137.997,513.615,127.485,507.156,121.024z M281.658,347.278l-22.867-22.867l188.884-188.884l22.868,22.868L281.658,347.278
	z M248.323,336.618l21.128,21.128l-39.615,18.487L248.323,336.618z M444.667,427.026c0,9.725-7.912,17.637-17.637,17.637H33.671
	c-9.725,0-17.637-7.912-17.637-17.637V84.974c0-9.725,7.912-17.637,17.637-17.637H427.03c9.725,0,17.637,7.912,17.637,17.637v30.885
	l-35.274,35.274v-40.505c0-3.557-2.344-6.689-5.758-7.692c-3.414-1-7.078,0.365-9.002,3.357l-31.737,49.369l-31.737-49.369
	c-1.923-2.992-5.589-4.357-9.002-3.357c-3.413,1.003-5.758,4.135-5.758,7.692v85.513c0,4.427,3.589,8.017,8.017,8.017
	s8.017-3.589,8.017-8.017v-58.217l23.72,36.899c1.475,2.294,4.016,3.681,6.744,3.681c2.728,0,5.269-1.387,6.744-3.681l23.72-36.899
	v29.242L244.133,316.394h-47.988c-4.427,0-8.017,3.589-8.017,8.017s3.589,8.017,8.017,8.017h36.439l-24.443,52.377h-80.407
	c-4.427,0-8.017,3.589-8.017,8.017s3.589,8.017,8.017,8.017h85.513l0,0c0.001,0,0.001,0,0.002,0c1.147,0,2.304-0.246,3.387-0.753
	l64.135-29.93c0.847-0.395,1.618-0.935,2.279-1.596l36.132-36.132h65.09c4.427,0,8.017-3.589,8.017-8.017s-3.589-8.017-8.017-8.017
	h-49.057l109.45-109.449V427.026z M495.819,133.118l-13.939,13.939l-22.868-22.868l13.939-13.939c0.208-0.207,0.547-0.207,0.756,0
	l22.112,22.111C496.026,132.571,496.026,132.91,495.819,133.118z"/>
<path d="M110.632,118.645c4.427,0,8.017-3.589,8.017-8.017s-3.589-8.017-8.017-8.017H59.325c-4.427,0-8.017,3.589-8.017,8.017
	v85.513c0,4.427,3.589,8.017,8.017,8.017h51.308c4.427,0,8.017-3.589,8.017-8.017s-3.589-8.017-8.017-8.017H67.341v-26.723h34.74
	c4.427,0,8.017-3.589,8.017-8.017s-3.589-8.017-8.017-8.017h-34.74v-26.723H110.632z"/>
<path d="M131.278,202.402c1.478,1.182,3.246,1.757,5.003,1.757c2.352,0,4.682-1.03,6.265-3.009l27.946-34.931l27.946,34.931
	c1.583,1.98,3.913,3.009,6.265,3.009c1.756,0,3.525-0.575,5.002-1.757c3.457-2.765,4.018-7.811,1.252-11.268l-30.199-37.749
	l30.199-37.749c2.765-3.457,2.205-8.502-1.252-11.268c-3.457-2.766-8.503-2.205-11.268,1.252l-27.945,34.933l-27.946-34.931
	c-2.766-3.458-7.813-4.019-11.268-1.252c-3.457,2.765-4.018,7.811-1.252,11.268l30.199,37.749l-30.199,37.749
	C127.26,194.591,127.821,199.635,131.278,202.402z"/>
<path d="M228.778,204.003c4.341,0.867,8.564-1.948,9.433-6.289l3.842-19.209h45.004l3.842,19.209
	c0.762,3.811,4.11,6.447,7.853,6.447c0.521,0,1.05-0.051,1.581-0.157c4.342-0.869,7.157-5.092,6.289-9.433l-15.041-75.202
	c-1.941-9.709-10.537-16.756-20.44-16.756h-13.174c-9.901,0-18.498,7.047-20.439,16.756l-15.041,75.202
	C221.621,198.911,224.436,203.134,228.778,204.003z M257.968,118.645h13.174c2.285,0,4.269,1.626,4.717,3.866l7.992,39.959h-38.591
	l7.992-39.959C253.7,120.271,255.684,118.645,257.968,118.645z"/>
<path d="M76.427,230.881c-13.851,0-25.119,11.268-25.119,25.119c0,13.851,11.268,25.119,25.119,25.119s25.119-11.268,25.119-25.119
	C101.547,242.149,90.278,230.881,76.427,230.881z M76.427,265.086c-5.01,0-9.086-4.076-9.086-9.086c0-5.01,4.076-9.086,9.086-9.086
	c5.01,0,9.086,4.076,9.086,9.086C85.513,261.01,81.437,265.086,76.427,265.086z"/>
<path d="M76.427,299.291c-13.851,0-25.119,11.268-25.119,25.119s11.268,25.119,25.119,25.119s25.119-11.268,25.119-25.119
	S90.278,299.291,76.427,299.291z M76.427,333.496c-5.01,0-9.086-4.076-9.086-9.086c0-5.01,4.076-9.086,9.086-9.086
	c5.01,0,9.086,4.076,9.086,9.086C85.513,329.42,81.437,333.496,76.427,333.496z"/>
<path d="M76.427,367.701c-13.851,0-25.119,11.268-25.119,25.119c0,13.851,11.268,25.119,25.119,25.119s25.119-11.268,25.119-25.119
	C101.547,378.97,90.278,367.701,76.427,367.701z M76.427,401.906c-5.01,0-9.086-4.076-9.086-9.086c0-5.01,4.076-9.086,9.086-9.086
	c5.01,0,9.086,4.076,9.086,9.086C85.513,397.831,81.437,401.906,76.427,401.906z"/>
<path d="M127.735,264.017h136.821c4.427,0,8.017-3.589,8.017-8.017c0-4.427-3.589-8.017-8.017-8.017H127.735
	c-4.427,0-8.017,3.589-8.017,8.017C119.718,260.428,123.307,264.017,127.735,264.017z"/>
<path d="M127.735,332.427h34.205c4.427,0,8.017-3.589,8.017-8.017s-3.589-8.017-8.017-8.017h-34.205
	c-4.427,0-8.017,3.589-8.017,8.017S123.307,332.427,127.735,332.427z"/>
<g>
</g>
<g>
</g>
<g>
</g>
<g>
</g>
<g>
</g>
<g>
</g>
<g>
</g>
<g>
</g>
<g>
</g>
<g>
</g>
<g>
</g>
<g>
</g>
<g>
</g>
<g>
</g>
<g>
</g>
</svg>
