<?xml version="1.0" encoding="iso-8859-1"?>
<!-- Generator: Adobe Illustrator 19.0.0, SVG Export Plug-In . SVG Version: 6.00 Build 0)  -->
<svg version="1.1" id="Layer_1" xmlns="http://www.w3.org/2000/svg" xmlns:xlink="http://www.w3.org/1999/xlink" x="0px" y="0px"
	 viewBox="0 0 512 512" style="enable-background:new 0 0 512 512;" xml:space="preserve">
<path style="fill:#FF6464;" d="M439.668,36.971V475.03c0,14.326-11.615,25.952-25.952,25.952H98.286
	c-14.326,0-25.952-11.626-25.952-25.952V36.971c0-14.326,11.626-25.952,25.952-25.952h315.43
	C428.053,11.02,439.668,22.646,439.668,36.971z M393.671,418.741v-54.096c0-17.345-14.05-31.395-31.395-31.395H308.18
	c-17.345,0-31.395,14.05-31.395,31.395v54.096c0,17.345,14.05,31.395,31.395,31.395h54.096
	C379.621,450.136,393.671,436.086,393.671,418.741z M393.671,260.056V205.96c0-17.345-14.05-31.395-31.395-31.395H308.18
	c-17.345,0-31.395,14.05-31.395,31.395v54.096c0,17.345,14.05,31.395,31.395,31.395h54.096
	C379.621,291.451,393.671,277.401,393.671,260.056z M393.671,132.579V59.848H124.414v72.731H393.671z M234.986,418.741v-54.096
	c0-17.345-14.05-31.395-31.395-31.395h-54.096c-17.345,0-31.395,14.05-31.395,31.395v54.096c0,17.345,14.05,31.395,31.395,31.395
	h54.096C220.936,450.136,234.986,436.086,234.986,418.741z M234.986,260.056V205.96c0-17.345-14.05-31.395-31.395-31.395h-54.096
	c-17.345,0-31.395,14.05-31.395,31.395v54.096c0,17.345,14.05,31.395,31.395,31.395h54.096
	C220.936,291.451,234.986,277.401,234.986,260.056z"/>
<g>
	<path style="fill:#E1EAF6;" d="M393.671,364.645v54.096c0,17.345-14.05,31.395-31.395,31.395H308.18
		c-17.345,0-31.395-14.05-31.395-31.395v-54.096c0-17.345,14.05-31.395,31.395-31.395h54.096
		C379.621,333.249,393.671,347.299,393.671,364.645z"/>
	<path style="fill:#E1EAF6;" d="M393.671,205.96v54.096c0,17.345-14.05,31.395-31.395,31.395H308.18
		c-17.345,0-31.395-14.05-31.395-31.395V205.96c0-17.345,14.05-31.395,31.395-31.395h54.096
		C379.621,174.564,393.671,188.615,393.671,205.96z"/>
</g>
<rect x="124.414" y="59.848" style="fill:#94D8F2;" width="269.257" height="72.731"/>
<g>
	<path style="fill:#E1EAF6;" d="M234.986,364.645v54.096c0,17.345-14.05,31.395-31.395,31.395h-54.096
		c-17.345,0-31.395-14.05-31.395-31.395v-54.096c0-17.345,14.05-31.395,31.395-31.395h54.096
		C220.936,333.249,234.986,347.299,234.986,364.645z"/>
	<path style="fill:#E1EAF6;" d="M234.986,205.96v54.096c0,17.345-14.05,31.395-31.395,31.395h-54.096
		c-17.345,0-31.395-14.05-31.395-31.395V205.96c0-17.345,14.05-31.395,31.395-31.395h54.096
		C220.936,174.564,234.986,188.615,234.986,205.96z"/>
</g>
<path d="M98.285,512h315.43c20.385,0,36.971-16.586,36.971-36.971V36.971C450.686,16.586,434.101,0,413.715,0H98.285
	C77.898,0,61.314,16.586,61.314,36.971V475.03C61.315,495.414,77.899,512,98.285,512z M83.354,36.971
	c0-8.234,6.699-14.932,14.932-14.932h315.43c8.234,0,14.932,6.698,14.932,14.932V475.03c0,8.234-6.698,14.932-14.932,14.932H98.285
	c-8.233,0-14.932-6.698-14.932-14.932V36.971H83.354z"/>
<path d="M124.413,143.599H393.67c6.085,0,11.02-4.935,11.02-11.02V59.848c0-6.085-4.935-11.02-11.02-11.02H124.413
	c-6.086,0-11.02,4.935-11.02,11.02v72.731C113.393,138.664,118.327,143.599,124.413,143.599z M135.433,70.868H382.65v50.691H135.433
	L135.433,70.868L135.433,70.868z"/>
<path d="M149.495,461.155h54.096c23.388,0,42.415-19.028,42.415-42.415v-54.096c0-23.388-19.028-42.415-42.415-42.415h-54.096
	c-23.388,0-42.415,19.028-42.415,42.415v54.096C107.079,442.128,126.107,461.155,149.495,461.155z M129.118,364.643
	c0-11.235,9.141-20.376,20.376-20.376h54.096c11.235,0,20.376,9.141,20.376,20.376v54.096c0,11.235-9.141,20.376-20.376,20.376
	h-54.096c-11.235,0-20.376-9.141-20.376-20.376V364.643z"/>
<path d="M152.074,402.706h13.455v13.455c0,6.085,4.934,11.02,11.02,11.02c6.086,0,11.02-4.935,11.02-11.02v-13.455h13.444
	c6.086,0,11.02-4.935,11.02-11.02c0-6.085-4.934-11.02-11.02-11.02h-13.444v-13.444c0-6.085-4.934-11.02-11.02-11.02
	c-6.086,0-11.02,4.935-11.02,11.02v13.444h-13.455c-6.086,0-11.02,4.935-11.02,11.02
	C141.054,397.771,145.987,402.706,152.074,402.706z"/>
<path d="M362.276,322.228h-54.097c-23.387,0-42.414,19.028-42.414,42.415v54.096c0,23.388,19.028,42.415,42.414,42.415h54.097
	c23.387,0,42.414-19.028,42.414-42.415v-54.096C404.69,341.256,385.663,322.228,362.276,322.228z M382.65,418.74
	c0,11.235-9.14,20.376-20.374,20.376h-54.097c-11.235,0-20.375-9.141-20.375-20.376v-54.096c0-11.235,9.14-20.376,20.375-20.376
	h54.097c11.235,0,20.374,9.141,20.374,20.376V418.74z"/>
<path d="M359.696,397.196h-48.938c-6.085,0-11.02,4.935-11.02,11.02c0,6.085,4.935,11.02,11.02,11.02h48.938
	c6.085,0,11.02-4.935,11.02-11.02C370.716,402.131,365.782,397.196,359.696,397.196z"/>
<path d="M359.696,364.137h-48.938c-6.085,0-11.02,4.935-11.02,11.02c0,6.085,4.935,11.02,11.02,11.02h48.938
	c6.085,0,11.02-4.935,11.02-11.02C370.716,369.071,365.782,364.137,359.696,364.137z"/>
<path d="M149.495,302.47h54.096c23.388,0,42.415-19.028,42.415-42.415v-54.096c0-23.388-19.028-42.415-42.415-42.415h-54.096
	c-23.388,0-42.415,19.028-42.415,42.415v54.096C107.079,283.443,126.107,302.47,149.495,302.47z M129.118,205.959
	c0-11.235,9.141-20.376,20.376-20.376h54.096c11.235,0,20.376,9.141,20.376,20.376v54.096c0,11.235-9.141,20.376-20.376,20.376
	h-54.096c-11.235,0-20.376-9.141-20.376-20.376V205.959z"/>
<path d="M152.074,244.021h48.939c6.086,0,11.02-4.935,11.02-11.02s-4.934-11.02-11.02-11.02h-48.939
	c-6.086,0-11.02,4.935-11.02,11.02S145.987,244.021,152.074,244.021z"/>
<path d="M362.276,163.543h-54.097c-23.387,0-42.414,19.028-42.414,42.415v54.096c0,23.388,19.028,42.415,42.414,42.415h54.097
	c23.387,0,42.414-19.028,42.414-42.415v-54.096C404.69,182.571,385.663,163.543,362.276,163.543z M382.65,260.055
	c0,11.235-9.14,20.376-20.374,20.376h-54.097c-11.235,0-20.375-9.141-20.375-20.376v-54.096c0-11.235,9.14-20.376,20.375-20.376
	h54.097c11.235,0,20.374,9.141,20.374,20.376V260.055z"/>
<path d="M363.079,205.151c-4.305-4.301-11.281-4.298-15.585,0.004l-12.266,12.267l-12.268-12.269c-4.304-4.302-11.28-4.302-15.585,0
	c-4.303,4.303-4.303,11.281,0,15.585l12.269,12.269l-12.267,12.267c-4.304,4.302-4.307,11.28-0.004,15.585
	c2.152,2.153,4.973,3.23,7.794,3.23c2.82,0,5.639-1.076,7.79-3.225l12.271-12.271l12.268,12.269
	c2.152,2.151,4.972,3.228,7.792,3.228c2.82,0,5.64-1.077,7.792-3.228c4.303-4.303,4.303-11.28,0-15.585l-12.269-12.269
	l12.271-12.272C367.386,216.43,367.384,209.453,363.079,205.151z"/>
<g>
</g>
<g>
</g>
<g>
</g>
<g>
</g>
<g>
</g>
<g>
</g>
<g>
</g>
<g>
</g>
<g>
</g>
<g>
</g>
<g>
</g>
<g>
</g>
<g>
</g>
<g>
</g>
<g>
</g>
</svg>
