<?xml version="1.0" encoding="iso-8859-1"?>
<!-- Generator: Adobe Illustrator 19.0.0, SVG Export Plug-In . SVG Version: 6.00 Build 0)  -->
<svg version="1.1" id="Layer_1" xmlns="http://www.w3.org/2000/svg" xmlns:xlink="http://www.w3.org/1999/xlink" x="0px" y="0px"
	 viewBox="0 0 512 512" style="enable-background:new 0 0 512 512;" xml:space="preserve">
<polygon style="fill:#9DA6BA;" points="499.982,298.089 499.982,372.556 305.27,372.556 206.718,372.556 12.018,372.556 
	12.018,298.089 "/>
<rect x="12.018" y="64.882" style="fill:#E1EAF6;" width="487.963" height="233.207"/>
<rect x="206.718" y="372.562" style="fill:#5A5D6F;" width="98.552" height="74.563"/>
<path d="M499.982,384.574c6.637,0,12.018-5.382,12.018-12.018V64.882c0-6.637-5.382-12.018-12.018-12.018H12.018
	C5.381,52.864,0,58.246,0,64.882v307.674c0,6.637,5.381,12.018,12.018,12.018H194.7v50.525h-21.633
	c-6.638,0-12.018,5.382-12.018,12.019c0,6.637,5.381,12.018,12.018,12.018h165.855c6.637,0,12.019-5.382,12.019-12.018
	c0-6.637-5.382-12.019-12.019-12.019h-21.633v-50.525H499.982z M24.037,310.107h355.754c6.637,0,12.018-5.382,12.018-12.019
	c0-6.637-5.382-12.018-12.018-12.018H24.037V76.901h463.926V286.07h-29.752c-6.637,0-12.018,5.382-12.018,12.018
	s5.382,12.018,12.018,12.018h29.752v50.431H305.27h-98.552H24.037V310.107z M218.737,435.099v-50.525h74.515v50.525H218.737z"/>
<path d="M417.649,310.107h1.953c6.637,0,12.019-5.382,12.019-12.019c0-6.637-5.382-12.018-12.019-12.018h-1.953
	c-6.637,0-12.018,5.382-12.018,12.018C405.63,304.725,411.011,310.107,417.649,310.107z"/>
<path d="M224.746,344.96h62.496c6.637,0,12.019-5.382,12.019-12.018c0-6.637-5.382-12.019-12.019-12.019h-62.496
	c-6.638,0-12.018,5.382-12.018,12.019C212.727,339.578,218.108,344.96,224.746,344.96z"/>
<g>
</g>
<g>
</g>
<g>
</g>
<g>
</g>
<g>
</g>
<g>
</g>
<g>
</g>
<g>
</g>
<g>
</g>
<g>
</g>
<g>
</g>
<g>
</g>
<g>
</g>
<g>
</g>
<g>
</g>
</svg>
