<?xml version="1.0" encoding="iso-8859-1"?>
<!-- Generator: Adobe Illustrator 19.0.0, SVG Export Plug-In . SVG Version: 6.00 Build 0)  -->
<svg version="1.1" id="Layer_1" xmlns="http://www.w3.org/2000/svg" xmlns:xlink="http://www.w3.org/1999/xlink" x="0px" y="0px"
	 viewBox="0 0 370.404 370.404" style="enable-background:new 0 0 370.404 370.404;" xml:space="preserve">
<g>
	<path style="fill:#A4A9AD;" d="M354.082,269.075c8.977,0,16.322-7.345,16.322-16.322V46.009c0-8.977-7.345-20.674-16.322-20.674
		H45.055c-8.977,0-16.322,7.345-16.322,16.322v211.096c0,8.977,7.345,16.322,16.322,16.322L354.082,269.075L354.082,269.075z"/>
	<path style="fill:#C3C6C8;" d="M335.946,269.075c8.978,0,16.322-7.345,16.322-16.322V41.657c0-8.977-7.345-16.322-16.322-16.322
		H26.919c-8.977,0-16.322,7.345-16.322,16.322v211.096c0,8.977,7.345,16.322,16.322,16.322L335.946,269.075L335.946,269.075z"/>
	<path style="fill:#333E48;" d="M335.946,25.335H26.919c-8.977,0-16.322,7.345-16.322,16.322v197.764h341.671V41.657
		C352.269,32.68,344.924,25.335,335.946,25.335z"/>
	<rect x="32.36" y="47.098" style="fill:#FFFFFF;" width="298.146" height="170.56"/>
	<g>
		<rect x="55.651" y="73.591" style="fill:#FF8189;" width="251.563" height="29.771"/>
		<rect x="55.651" y="121.31" style="fill:#F6C65B;" width="91.529" height="63.5"/>
		<rect x="164.446" y="127.971" style="fill:#009BDE;" width="63.77" height="17.676"/>
		<rect x="243.444" y="127.971" style="fill:#C3C6C8;" width="63.77" height="17.676"/>
		<rect x="164.446" y="160.474" style="fill:#C3C6C8;" width="63.77" height="17.676"/>
		<rect x="243.444" y="160.474" style="fill:#C3C6C8;" width="63.77" height="17.676"/>
	</g>
	<g>
		<polygon style="fill:#B3B8BA;" points="172.725,327.921 251.072,327.921 231.485,269.075 153.14,269.075 		"/>
		<path style="fill:#C3C6C8;" d="M146.069,327.921c-2.98,0-5.396,2.416-5.396,5.396s2.416,5.396,5.396,5.396h77.801v-10.791h-77.801
			V327.921z"/>
		<path style="fill:#A4A9AD;" d="M254.12,338.712c4.838,0,8.761-3.923,8.761-8.761c0-1.018-0.173-1.995-0.492-2.903l-0.002-0.002
			l-19.294-57.97h-11.607l19.587,58.846H223.87c-2.98,0-5.396,2.416-5.396,5.396s2.416,5.396,5.396,5.396h30.294h-0.044V338.712z"/>
	</g>
	<circle style="fill:#333E48;" cx="181.433" cy="254.563" r="8.161"/>
	<g>
		<rect y="334.279" style="fill:#D1D3D3;" width="143.632" height="10.79"/>
		<path style="fill:#B3B8BA;" d="M197.311,345.069c2.98,0,5.396-2.415,5.396-5.395s-2.417-5.395-5.396-5.395h-53.679v10.79
			L197.311,345.069L197.311,345.069z"/>
		<rect x="173.169" y="332.466" style="fill:#A4A9AD;" width="14.303" height="1.813"/>
		<rect x="151.225" y="332.466" style="fill:#A4A9AD;" width="14.303" height="1.813"/>
		<rect x="129.282" y="332.466" style="fill:#B3B8BA;" width="14.303" height="1.813"/>
		<rect x="107.337" y="332.466" style="fill:#B3B8BA;" width="14.303" height="1.813"/>
		<rect x="85.393" y="332.466" style="fill:#B3B8BA;" width="14.303" height="1.813"/>
		<rect x="63.449" y="332.466" style="fill:#B3B8BA;" width="14.303" height="1.813"/>
		<rect x="41.505" y="332.466" style="fill:#B3B8BA;" width="14.303" height="1.813"/>
		<rect x="19.561" y="332.466" style="fill:#B3B8BA;" width="14.303" height="1.813"/>
	</g>
	<g>
		<g>
			<path style="fill:#D1D3D3;" d="M295.193,345.069c0-7.023-5.694-12.716-12.717-12.716h-18.689
				c-7.022,0-12.716,5.693-12.716,12.716H295.193z"/>
		</g>
		<g>
			<path style="fill:#C3C6C8;" d="M308.987,345.069c0-7.023-5.694-12.716-12.717-12.716H281.4c-7.023,0-12.717,5.693-12.717,12.716
				H308.987z"/>
		</g>
	</g>
</g>
<g>
</g>
<g>
</g>
<g>
</g>
<g>
</g>
<g>
</g>
<g>
</g>
<g>
</g>
<g>
</g>
<g>
</g>
<g>
</g>
<g>
</g>
<g>
</g>
<g>
</g>
<g>
</g>
<g>
</g>
</svg>
