<?xml version="1.0" standalone="no"?>
<!DOCTYPE svg PUBLIC "-//W3C//DTD SVG 20010904//EN"
 "http://www.w3.org/TR/2001/REC-SVG-20010904/DTD/svg10.dtd">
<svg version="1.0" xmlns="http://www.w3.org/2000/svg"
 width="2000.000000pt" height="2000.000000pt" viewBox="0 0 2000.000000 2000.000000"
 preserveAspectRatio="xMidYMid meet">
<metadata>
Created by potrace 1.14, written by Peter Selinger 2001-2017
</metadata>
<g transform="translate(0.000000,2000.000000) scale(0.100000,-0.100000)"
fill="#000000" stroke="none">
<path d="M0 10000 l0 -10000 10000 0 10000 0 0 10000 0 10000 -10000 0 -10000
0 0 -10000z m13890 3730 l0 -820 -3890 0 -3890 0 0 820 0 820 3890 0 3890 0 0
-820z m2120 -3735 l0 -885 -6010 0 -6010 0 0 885 0 885 6010 0 6010 0 0 -885z
m-2120 -3735 l0 -820 -3890 0 -3890 0 0 820 0 820 3890 0 3890 0 0 -820z"/>
</g>
</svg>
