<svg id="svg" version="1.1" width="400" height="348.2155353393982" viewBox="0 0 400 348.2155353393982" xmlns="http://www.w3.org/2000/svg" xmlns:xlink="http://www.w3.org/1999/xlink" ><g id="svgg"><path id="path0" d="M199.091 0.350 C 198.939 0.542,197.963 2.211,196.924 4.059 C 195.885 5.906,193.614 9.874,191.878 12.876 C 188.731 18.317,180.743 32.174,173.402 44.927 C 171.275 48.621,168.674 53.136,167.622 54.960 C 165.324 58.944,165.339 58.185,167.484 61.960 C 171.252 68.588,193.911 107.965,201.737 121.484 C 210.765 137.078,251.978 208.709,260.681 223.933 C 264.070 229.860,269.355 239.044,272.425 244.341 C 275.496 249.638,279.908 257.258,282.229 261.276 C 284.551 265.293,287.504 270.401,288.793 272.626 C 290.081 274.852,291.455 277.093,291.846 277.605 L 292.557 278.538 326.521 278.457 C 345.201 278.413,360.577 278.284,360.690 278.172 C 360.802 278.060,360.261 276.926,359.487 275.653 C 358.713 274.380,355.402 268.677,352.130 262.981 C 348.857 257.285,344.388 249.538,342.198 245.766 C 340.009 241.994,336.261 235.507,333.871 231.351 C 331.480 227.194,327.479 220.266,324.980 215.955 C 322.480 211.645,319.844 207.047,319.122 205.738 C 318.399 204.430,316.481 201.092,314.860 198.321 C 312.226 193.819,307.902 186.333,294.895 163.751 C 286.595 149.341,274.572 128.523,269.272 119.384 C 263.037 108.634,253.855 92.715,238.353 65.780 C 234.233 58.621,229.824 51.001,228.555 48.845 C 227.286 46.690,225.436 43.478,224.444 41.707 C 223.453 39.937,218.161 30.742,212.686 21.274 C 207.210 11.805,202.385 3.366,201.963 2.519 C 200.757 0.100,199.839 -0.593,199.091 0.350 M159.010 70.023 C 158.826 70.230,157.195 72.981,155.386 76.137 C 153.577 79.293,149.441 86.473,146.197 92.092 C 142.952 97.712,136.589 108.733,132.057 116.585 C 127.525 124.437,117.416 141.945,109.592 155.493 C 101.768 169.041,93.419 183.527,91.039 187.684 C 88.659 191.840,85.829 196.753,84.751 198.600 C 83.672 200.448,82.318 202.778,81.742 203.779 C 81.165 204.780,79.310 207.992,77.618 210.917 C 75.927 213.842,74.005 217.180,73.349 218.334 C 71.267 221.994,42.038 272.564,39.049 277.677 C 37.474 280.371,33.631 287.047,30.509 292.512 C 27.386 297.978,22.601 306.291,19.875 310.987 C 14.419 320.383,8.071 331.370,3.176 339.887 C -0.499 346.283,-0.831 347.474,0.968 347.812 C 2.235 348.050,65.643 347.752,66.833 347.503 C 67.890 347.281,67.136 348.491,77.819 329.881 C 81.708 323.107,86.813 314.227,89.162 310.147 C 91.512 306.067,94.595 300.714,96.013 298.251 C 97.431 295.787,99.757 291.756,101.181 289.293 C 102.606 286.830,105.504 281.791,107.621 278.097 C 109.739 274.402,113.583 267.789,116.164 263.401 C 118.746 259.013,122.778 252.085,125.125 248.006 C 130.565 238.549,132.524 235.156,139.184 223.653 C 142.170 218.495,148.561 207.411,153.385 199.020 C 158.209 190.630,163.820 180.931,165.854 177.467 C 171.001 168.701,193.367 129.790,193.584 129.225 C 193.790 128.689,193.918 128.921,180.998 106.508 C 175.763 97.425,168.980 85.647,165.927 80.336 C 160.063 70.136,159.566 69.396,159.010 70.023 M114.423 289.123 C 113.567 289.263,113.233 289.525,112.562 290.588 C 111.691 291.966,104.870 303.757,102.802 307.460 C 101.584 309.642,92.325 325.711,85.361 337.732 C 81.435 344.508,80.139 346.992,80.396 347.249 C 80.964 347.818,387.614 348.337,396.455 347.784 C 399.877 347.570,400.725 347.198,399.626 346.395 C 399.370 346.208,399.160 345.735,399.160 345.344 C 399.160 344.467,398.403 343.020,394.021 335.518 C 392.120 332.264,389.111 327.082,387.335 324.003 C 374.782 302.245,371.150 295.937,369.682 293.352 C 368.764 291.735,367.769 290.066,367.472 289.643 L 366.932 288.873 241.199 288.913 C 172.045 288.935,114.996 289.029,114.423 289.123 " stroke="none" fill="#1cbc9c" fill-rule="evenodd"></path><path id="path1" d="" stroke="none" fill="#20bc9c" fill-rule="evenodd"></path><path id="path2" d="" stroke="none" fill="#20bc9c" fill-rule="evenodd"></path><path id="path3" d="" stroke="none" fill="#20bc9c" fill-rule="evenodd"></path><path id="path4" d="" stroke="none" fill="#20bc9c" fill-rule="evenodd"></path></g></svg>