<?xml version="1.0"?>
<svg enable-background="new 0 0 64 64" version="1.1" viewBox="0 0 64 64" xml:space="preserve" xmlns="http://www.w3.org/2000/svg" xmlns:xlink="http://www.w3.org/1999/xlink">
    <g id="Layer_3">
        <g>
            <g>
                <path d="M32.001,63.251c-17.23,0-31.25-14.02-31.25-31.25s14.02-31.25,31.25-31.25s31.25,14.02,31.25,31.25     S49.231,63.251,32.001,63.251z" fill="transparent" />
                <path d="M32,1.5c16.818,0,30.5,13.682,30.5,30.5S48.818,62.5,32,62.5S1.5,48.818,1.5,32S15.182,1.5,32,1.5 M32,0     C14.327,0,0,14.327,0,32c0,17.673,14.327,32,32,32s32-14.327,32-32C64,14.327,49.673,0,32,0L32,0z" fill="transparent" />
            </g>
        </g>
        <g>
            <g id="Outline_Filled_5_">
                <path d="M38.592,50.166h-4.84h-4.844c0,0,0.014-2.874,0-4.844c-6.629,1.428-8.479-3.633-8.479-3.633     c-1.21-2.423-2.423-3.633-2.423-3.633c-2.423-1.438,0-1.21,0-1.21c2.423,0,3.633,2.423,3.633,2.423     c2.126,3.609,5.908,3.028,7.266,2.423c0-1.21,0.53-3.042,1.21-3.633c-5.29-0.595-9.693-3.633-9.693-9.689     s1.216-7.266,2.427-8.479c-0.244-0.597-1.259-2.805,0.037-6.056c0,0,2.38,0,4.803,3.633c1.2-1.2,4.844-1.21,6.056-1.21     c1.208,0,4.854,0.01,6.054,1.21c2.423-3.633,4.809-3.633,4.809-3.633c1.296,3.251,0.282,5.459,0.037,6.056     c1.21,1.21,2.423,2.423,2.423,8.479s-4.397,9.092-9.689,9.689c0.682,0.591,1.21,2.675,1.21,3.633L38.592,50.166L38.592,50.166z" fill="#fff" id="Cat_1_" />
            </g>
        </g>
    </g>
</svg>